Coordinates
version=1
nRows=10
nColumns=22
inDegrees=yes

Units are S.I. units (second, meters, Newtons, ...)
If the header above contains a line with 'inDegrees', this indicates whether rotational values are in degrees (yes) or radians (no).

endheader
time	pelvis_tilt	pelvis_list	pelvis_rotation	pelvis_tx	pelvis_ty	pelvis_tz	hip_flexion_r	hip_adduction_r	hip_rotation_r	knee_angle_r	ankle_angle_r	subtalar_angle_r	hip_flexion_l	hip_adduction_l	hip_rotation_l	knee_angle_l	ankle_angle_l	subtalar_angle_l	lumbar_extension	lumbar_bending	lumbar_rotation
      0.01000000	     -2.22688986	      2.94635513	    172.77573071	      0.18890034	      0.93334544	      0.88761547	     -3.09713843	     -1.95217619	      1.12588941	     -5.27745104	      3.22156627	      9.03962572	     -4.08433493	     -7.91529005	    -19.78820126	     -8.33342427	      7.85410978	     10.39062201	     -4.33521831	     -0.86330034	      2.93942818
      0.02000000	     -2.21830668	      2.94477150	    172.78076398	      0.18883209	      0.93332926	      0.88764086	     -3.09472480	     -1.95389687	      1.12503255	     -5.27421677	      3.22290651	      9.03913336	     -4.08077570	     -7.91220343	    -19.78900950	     -8.32849898	      7.85398973	     10.39074502	     -4.34626282	     -0.86010384	      2.94146658
      0.03000000	     -2.20772228	      2.94290082	    172.78770808	      0.18874950	      0.93331102	      0.88767028	     -3.09207639	     -1.95601748	      1.12348774	     -5.26947472	      3.22512179	      9.03858481	     -4.07634848	     -7.90866539	    -19.78966520	     -8.32164303	      7.85430601	     10.39056878	     -4.35820126	     -0.85677373	      2.94508267
      0.04000000	     -2.18279173	      2.92606838	    172.80282240	      0.18862494	      0.93327035	      0.88771497	     -3.07788494	     -1.97291553	      1.09964053	     -5.26147669	      3.25758547	      9.02787770	     -4.06808684	     -7.88487341	    -19.74991836	     -8.28626508	      7.84887604	     10.37632995	     -4.34643876	     -0.86906945	      2.94787017
      0.05000000	     -2.17035275	      2.92526310	    172.80926570	      0.18852275	      0.93324998	      0.88774390	     -3.07437252	     -1.97415434	      1.09781339	     -5.25691724	      3.25952698	      9.02780013	     -4.06291574	     -7.88232923	    -19.75241503	     -8.27998440	      7.84931403	     10.37551733	     -4.36027761	     -0.86597260	      2.95197382
      0.06000000	     -2.13288551	      2.91483152	    172.81620302	      0.18838784	      0.93319213	      0.88777714	     -3.03906348	     -1.98310578	      1.07639102	     -5.26506122	      3.29757819	      9.03213561	     -4.04071513	     -7.86817863	    -19.73602213	     -8.25293220	      7.85397879	     10.34345244	     -4.33762160	     -0.87180745	      2.96579121
      0.07000000	     -2.11924628	      2.91476012	    172.82203126	      0.18826255	      0.93317137	      0.88780996	     -3.03552118	     -1.98446931	      1.07505776	     -5.26077657	      3.29952665	      9.03253715	     -4.03599115	     -7.86560236	    -19.73891902	     -8.24617903	      7.85498679	     10.34243913	     -4.35069868	     -0.87024237	      2.96887193
      0.08000000	     -2.07528808	      2.89481388	    172.82184456	      0.18809970	      0.93310544	      0.88785389	     -2.98939171	     -2.00574982	      1.06536150	     -5.27622190	      3.34472925	      9.05232570	     -4.01319030	     -7.83742100	    -19.72301663	     -8.20917713	      7.86300944	     10.29989239	     -4.31787927	     -0.88713256	      2.98187375
      0.09000000	     -2.06082582	      2.89596899	    172.82731219	      0.18794861	      0.93308762	      0.88788730	     -2.98611791	     -2.00642281	      1.06461066	     -5.27320079	      3.34647877	      9.05305619	     -4.00983280	     -7.83585580	    -19.72699648	     -8.20122948	      7.86405751	     10.29843340	     -4.33007454	     -0.88934249	      2.98226142
      0.10000000	     -2.01961401	      2.86706371	    172.82292143	      0.18775314	      0.93302798	      0.88793822	     -2.94262252	     -2.03967639	      1.06006677	     -5.29008428	      3.39391555	      9.08219223	     -3.99768850	     -7.79319698	    -19.71715231	     -8.14984690	      7.86551725	     10.23834304	     -4.29731663	     -0.92066776	      2.98634104
